# xmcd CD database file
#
# Track frame offsets:
#	150
#	13187
#	35535
#	49392
#	66850
#	82022
#	93120
#	110529
#	128480
#	152325
#
# Disc length: 2191 seconds
#
# Revision: 2
# Processed by: cddbd v1.4PL0 Copyright (c) Steve Scherf et al.
# Submitted via: CDex 1.40Beta8
#
DISCID=78088d0a
DTITLE=J D Sumner and The Stamps - Let's Have Church
DYEAR=1995
DGENRE=Gospel
TTITLE0=Dig A Little Deeper In God's Love
TTITLE1=The Lord Still Lives In This Old House
TTITLE2=Walkin' and Talkin' With My Lord
TTITLE3=Beyond The Cross
TTITLE4=I Just Steal Away and Pray
TTITLE5=Lord, I'M Ready Now To Go
TTITLE6=Don't Get Down On Jesus
TTITLE7=Standing In The Safety Zone
TTITLE8=Church
TTITLE9=Some Day Soon
EXTD=YEAR: 1995 ID3G: 38
EXTT0=
EXTT1=
EXTT2=
EXTT3=
EXTT4=
EXTT5=
EXTT6=
EXTT7=
EXTT8=
EXTT9=
PLAYORDER=
